<?xml version="1.0" encoding="UTF-8" standalone="no"?> <svg xmlns="http://www.w3.org/2000/svg" viewBox="-500 -500 1000 1000"><g id="Cross-54"><title>Cross LIV, by Adam Stanislav</title><path d="m-80.09-80.09c-18.57-144.9-86.84-274.35-187.15-370.68 34.345-20.419 71.218-37.025 110.03-49.231 24.17 7.6 47.587 16.906 70.109 27.777 55.016 26.617 119.18 26.617 174.2 0 22.522-10.871 45.939-20.177 70.109-27.777 38.815 12.206 75.688 28.812 110.03 49.231-100.31 96.329-168.58 225.78-187.15 370.68 144.9-18.57 274.35-86.84 370.68-187.15 20.419 34.345 37.025 71.218 49.231 110.03-7.6 24.17-16.906 47.587-27.777 70.109-26.617 55.016-26.617 119.18 0 174.2 10.871 22.522 20.177 45.939 27.777 70.109-12.206 38.815-28.812 75.688-49.231 110.03-96.329-100.31-225.78-168.58-370.68-187.15 18.57 144.9 86.84 274.35 187.15 370.68-34.345 20.419-71.218 37.025-110.03 49.231-24.17-7.6-47.587-16.906-70.109-27.777-55.016-26.617-119.18-26.617-174.2 0-22.522 10.871-45.939 20.177-70.109 27.777-38.815-12.206-75.688-28.812-110.03-49.231 100.31-96.329 168.58-225.78 187.15-370.68-144.9 18.57-274.35 86.84-370.68 187.15-20.419-34.345-37.025-71.218-49.231-110.03 7.6-24.17 16.906-47.587 27.777-70.109 26.617-55.016 26.617-119.18 0-174.2-10.871-22.522-20.177-45.939-27.777-70.109 12.206-38.815 28.812-75.688 49.231-110.03 96.329 100.31 225.78 168.58 370.68 187.15z"></path></g></svg> 